<svg width="131" height="127" viewBox="0 0 131 127" fill="none" xmlns="http://www.w3.org/2000/svg">
<path fill-rule="evenodd" clip-rule="evenodd" d="M21.8333 3.51759C21.8333 2.58467 22.2167 1.68996 22.8991 1.03028C23.5816 0.370603 24.5071 0 25.4722 0H105.528C106.493 0 107.418 0.370603 108.101 1.03028C108.783 1.68996 109.167 2.58467 109.167 3.51759V7.03518H127.361C128.326 7.03518 129.252 7.40579 129.934 8.06546C130.617 8.72514 131 9.61985 131 10.5528V31.6583C131 36.3229 129.083 40.7965 125.671 44.0949C122.259 47.3933 117.631 49.2463 112.806 49.2463H106.681C101.074 64.583 86.5582 75.8534 69.1389 77.2428V98.4926H94.6111C95.5762 98.4926 96.5018 98.8632 97.1842 99.5229C97.8666 100.183 98.25 101.077 98.25 102.01V123.116C98.25 124.049 97.8666 124.943 97.1842 125.603C96.5018 126.263 95.5762 126.633 94.6111 126.633H36.3889C35.4238 126.633 34.4982 126.263 33.8158 125.603C33.1334 124.943 32.75 124.049 32.75 123.116V102.01C32.75 101.077 33.1334 100.183 33.8158 99.5229C34.4982 98.8632 35.4238 98.4926 36.3889 98.4926H61.8611V77.2428C44.4454 75.8534 29.9262 64.583 24.3187 49.2463H18.1944C13.369 49.2463 8.74115 47.3933 5.32903 44.0949C1.91691 40.7965 0 36.3229 0 31.6583V10.5528C0 9.61985 0.383383 8.72514 1.06581 8.06546C1.74823 7.40579 2.6738 7.03518 3.63889 7.03518H21.8333V3.51759ZM101.889 35.1759V7.03518H29.1111V35.1759C29.1111 54.6036 45.4024 70.3518 65.5 70.3518C85.5976 70.3518 101.889 54.6036 101.889 35.1759ZM109.167 14.0704V42.2111H112.806C115.701 42.2111 118.478 41.0993 120.525 39.1203C122.572 37.1412 123.722 34.4571 123.722 31.6583V14.0704H109.167ZM7.27778 14.0704H21.8333V42.2111H18.1944C15.2992 42.2111 12.5225 41.0993 10.4752 39.1203C8.42792 37.1412 7.27778 34.4571 7.27778 31.6583V14.0704ZM40.0278 105.528V119.598H90.9722V105.528H40.0278Z" fill="black"/>
</svg>
